<?xml version="1.0" encoding="UTF-8" standalone="no"?>
<svg
   xmlns:dc="http://purl.org/dc/elements/1.1/"
   xmlns:cc="http://creativecommons.org/ns#"
   xmlns:rdf="http://www.w3.org/1999/02/22-rdf-syntax-ns#"
   xmlns:svg="http://www.w3.org/2000/svg"
   xmlns="http://www.w3.org/2000/svg"
   xmlns:sodipodi="http://sodipodi.sourceforge.net/DTD/sodipodi-0.dtd"
   xmlns:inkscape="http://www.inkscape.org/namespaces/inkscape"
   version="1.0"
   width="252.47mm"
   height="192.98mm"
   id="svg4870"
   sodipodi:docname="micromotionAmplitude.svg"
   inkscape:version="0.92.1 r15371"
   inkscape:export-filename="C:\Users\19727887\Desktop\Nancy\PhD\Github\PhD\2018_IONS_conference\figures\micromotionAmplitude.png"
   inkscape:export-xdpi="396.89999"
   inkscape:export-ydpi="396.89999">
  <metadata
     id="metadata4874">
    <rdf:RDF>
      <cc:Work
         rdf:about="">
        <dc:format>image/svg+xml</dc:format>
        <dc:type
           rdf:resource="http://purl.org/dc/dcmitype/StillImage" />
        <dc:title></dc:title>
      </cc:Work>
    </rdf:RDF>
  </metadata>
  <sodipodi:namedview
     pagecolor="#ffffff"
     bordercolor="#666666"
     borderopacity="1"
     objecttolerance="10"
     gridtolerance="10"
     guidetolerance="10"
     inkscape:pageopacity="0"
     inkscape:pageshadow="2"
     inkscape:window-width="1920"
     inkscape:window-height="1018"
     id="namedview4872"
     showgrid="false"
     inkscape:zoom="1.1905045"
     inkscape:cx="477.10866"
     inkscape:cy="364.68661"
     inkscape:window-x="-8"
     inkscape:window-y="-8"
     inkscape:window-maximized="1"
     inkscape:current-layer="svg4870" />
  <defs
     id="defs4672">
    <pattern
       id="EMFhbasepattern"
       patternUnits="userSpaceOnUse"
       width="6"
       height="6"
       x="0"
       y="0" />
  </defs>
  <path
     style="fill:#ffffff;fill-rule:evenodd;fill-opacity:1;stroke:none;"
     d="  M 123.96094,54.649449   L 123.96094,647.79591   L 865.06079,647.79591   L 865.06079,54.649449   L 123.96094,54.649449   z "
     id="path4678" />
  <path
     style="fill:none;stroke:#262626;stroke-width:0.91637796px;stroke-linecap:butt;stroke-linejoin:round;stroke-miterlimit:4;stroke-dasharray:none;stroke-opacity:1"
     d="M 117.96094,647.79591 H 859.06079"
     id="path4680"
     inkscape:connector-curvature="0" />
  <path
     style="fill:none;stroke:#262626;stroke-width:0.91637796px;stroke-linecap:butt;stroke-linejoin:round;stroke-miterlimit:4;stroke-dasharray:none;stroke-opacity:1"
     d="m 117.96094,647.79591 v -7.33103"
     id="path4682"
     inkscape:connector-curvature="0" />
  <path
     style="fill:none;stroke:#262626;stroke-width:0.91637796px;stroke-linecap:butt;stroke-linejoin:round;stroke-miterlimit:4;stroke-dasharray:none;stroke-opacity:1"
     d="m 244.17118,647.79591 v -7.33103"
     id="path4684"
     inkscape:connector-curvature="0" />
  <path
     style="fill:none;stroke:#262626;stroke-width:0.91637796px;stroke-linecap:butt;stroke-linejoin:round;stroke-miterlimit:4;stroke-dasharray:none;stroke-opacity:1"
     d="m 370.29811,647.79591 v -7.33103"
     id="path4686"
     inkscape:connector-curvature="0" />
  <path
     style="fill:none;stroke:#262626;stroke-width:0.91637796px;stroke-linecap:butt;stroke-linejoin:round;stroke-miterlimit:4;stroke-dasharray:none;stroke-opacity:1"
     d="m 496.42504,647.79591 v -7.33103"
     id="path4688"
     inkscape:connector-curvature="0" />
  <path
     style="fill:none;stroke:#262626;stroke-width:0.91637796px;stroke-linecap:butt;stroke-linejoin:round;stroke-miterlimit:4;stroke-dasharray:none;stroke-opacity:1"
     d="m 622.55197,647.79591 v -7.33103"
     id="path4690"
     inkscape:connector-curvature="0" />
  <path
     style="fill:none;stroke:#262626;stroke-width:0.91637796px;stroke-linecap:butt;stroke-linejoin:round;stroke-miterlimit:4;stroke-dasharray:none;stroke-opacity:1"
     d="m 748.7622,647.79591 v -7.33103"
     id="path4692"
     inkscape:connector-curvature="0" />
  <text
     xml:space="preserve"
     style="font-style:normal;font-variant:normal;font-weight:400;font-size:26.6875px;line-height:125%;font-family:Arial;text-align:start;letter-spacing:0px;word-spacing:0px;text-anchor:start;fill:#000000;fill-opacity:1;stroke:none"
     x="109.96346"
     y="686.45038"
     id="text4698"><tspan
       sodipodi:role="line"
       x="109.96346"
       y="686.45038"
       id="tspan4696"><tspan
         dx="0"
         dy="0"
         style="font-style:normal;font-variant:normal;font-weight:400;font-size:26.6875px;font-family:Arial;fill:#262626"
         id="tspan4694">0</tspan></tspan></text>
  <text
     xml:space="preserve"
     style="font-style:normal;font-variant:normal;font-weight:400;font-size:26.6875px;line-height:125%;font-family:Arial;text-align:start;letter-spacing:0px;word-spacing:0px;text-anchor:start;fill:#000000;fill-opacity:1;stroke:none"
     x="221.92819"
     y="686.45038"
     id="text4704"><tspan
       sodipodi:role="line"
       x="221.92819"
       y="686.45038"
       id="tspan4702"><tspan
         dx="0"
         dy="0"
         style="font-style:normal;font-variant:normal;font-weight:400;font-size:26.6875px;font-family:Arial;fill:#262626"
         id="tspan4700">100</tspan></tspan></text>
  <text
     xml:space="preserve"
     style="font-style:normal;font-variant:normal;font-weight:400;font-size:26.6875px;line-height:125%;font-family:Arial;text-align:start;letter-spacing:0px;word-spacing:0px;text-anchor:start;fill:#000000;fill-opacity:1;stroke:none"
     x="347.22205"
     y="686.45038"
     id="text4710"><tspan
       sodipodi:role="line"
       x="347.22205"
       y="686.45038"
       id="tspan4708"><tspan
         dx="0"
         dy="0"
         style="font-style:normal;font-variant:normal;font-weight:400;font-size:26.6875px;font-family:Arial;fill:#262626"
         id="tspan4706">200</tspan></tspan></text>
  <text
     xml:space="preserve"
     style="font-style:normal;font-variant:normal;font-weight:400;font-size:26.6875px;line-height:125%;font-family:Arial;text-align:start;letter-spacing:0px;word-spacing:0px;text-anchor:start;fill:#000000;fill-opacity:1;stroke:none"
     x="473.84882"
     y="686.45038"
     id="text4716"><tspan
       sodipodi:role="line"
       x="473.84882"
       y="686.45038"
       id="tspan4714"><tspan
         dx="0"
         dy="0"
         style="font-style:normal;font-variant:normal;font-weight:400;font-size:26.6875px;font-family:Arial;fill:#262626"
         id="tspan4712">300</tspan></tspan></text>
  <text
     xml:space="preserve"
     style="font-style:normal;font-variant:normal;font-weight:400;font-size:26.6875px;line-height:125%;font-family:Arial;text-align:start;letter-spacing:0px;word-spacing:0px;text-anchor:start;fill:#000000;fill-opacity:1;stroke:none"
     x="600.47559"
     y="686.45038"
     id="text4722"><tspan
       sodipodi:role="line"
       x="600.47559"
       y="686.45038"
       id="tspan4720"><tspan
         dx="0"
         dy="0"
         style="font-style:normal;font-variant:normal;font-weight:400;font-size:26.6875px;font-family:Arial;fill:#262626"
         id="tspan4718">400</tspan></tspan></text>
  <text
     xml:space="preserve"
     style="font-style:normal;font-variant:normal;font-weight:400;font-size:26.6875px;line-height:125%;font-family:Arial;text-align:start;letter-spacing:0px;word-spacing:0px;text-anchor:start;fill:#000000;fill-opacity:1;stroke:none"
     x="725.76941"
     y="686.45038"
     id="text4728"><tspan
       sodipodi:role="line"
       x="725.76941"
       y="686.45038"
       id="tspan4726"><tspan
         dx="0"
         dy="0"
         style="font-style:normal;font-variant:normal;font-weight:400;font-size:26.6875px;font-family:Arial;fill:#262626"
         id="tspan4724">500</tspan></tspan></text>
  <text
     xml:space="preserve"
     style="font-style:normal;font-variant:normal;font-weight:400;font-size:29.3125px;line-height:125%;font-family:Arial;text-align:start;letter-spacing:0px;word-spacing:0px;text-anchor:start;fill:#000000;fill-opacity:1;stroke:none"
     x="432.5285"
     y="723.77197"
     id="text4734"><tspan
       sodipodi:role="line"
       x="432.5285"
       y="723.77197"
       id="tspan4732"><tspan
         dx="0"
         dy="0"
         style="font-style:normal;font-variant:normal;font-weight:400;font-size:29.3125px;font-family:Arial;fill:#262626"
         id="tspan4730">Time /ns</tspan></tspan></text>
  <path
     style="fill:none;stroke:#262626;stroke-width:0.91637796px;stroke-linecap:butt;stroke-linejoin:round;stroke-miterlimit:4;stroke-dasharray:none;stroke-opacity:1"
     d="M 117.96094,647.79591 V 54.649449"
     id="path4736"
     inkscape:connector-curvature="0" />
  <text
     xml:space="preserve"
     style="font-style:normal;font-variant:normal;font-weight:400;font-size:29.3125px;line-height:125%;font-family:Arial;text-align:start;letter-spacing:0px;word-spacing:0px;text-anchor:start;fill:#000000;fill-opacity:1;stroke:none"
     transform="rotate(-90)"
     x="-587.81482"
     y="97.298897"
     id="text4786"><tspan
       sodipodi:role="line"
       x="-587.81482"
       y="97.298897"
       id="tspan4784"><tspan
         dx="0"
         dy="0"
         style="font-style:normal;font-variant:normal;font-weight:400;font-size:29.3125px;font-family:Arial;fill:#262626"
         id="tspan4738">P</tspan><tspan
         dx="0"
         dy="0"
         style="font-style:normal;font-variant:normal;font-weight:400;font-size:29.3125px;font-family:Arial;fill:#262626"
         id="tspan4740">h</tspan><tspan
         dx="0"
         dy="0"
         style="font-style:normal;font-variant:normal;font-weight:400;font-size:29.3125px;font-family:Arial;fill:#262626"
         id="tspan4742">o</tspan><tspan
         dx="0"
         dy="0"
         style="font-style:normal;font-variant:normal;font-weight:400;font-size:29.3125px;font-family:Arial;fill:#262626"
         id="tspan4744">t</tspan><tspan
         dx="0"
         dy="0"
         style="font-style:normal;font-variant:normal;font-weight:400;font-size:29.3125px;font-family:Arial;fill:#262626"
         id="tspan4746">o</tspan><tspan
         dx="0"
         dy="0"
         style="font-style:normal;font-variant:normal;font-weight:400;font-size:29.3125px;font-family:Arial;fill:#262626"
         id="tspan4748">n </tspan><tspan
         dx="0"
         dy="0"
         style="font-style:normal;font-variant:normal;font-weight:400;font-size:29.3125px;font-family:Arial;fill:#262626"
         id="tspan4750" /><tspan
         dx="0"
         dy="0"
         style="font-style:normal;font-variant:normal;font-weight:400;font-size:29.3125px;font-family:Arial;fill:#262626"
         id="tspan4752">s</tspan><tspan
         dx="0"
         dy="0"
         style="font-style:normal;font-variant:normal;font-weight:400;font-size:29.3125px;font-family:Arial;fill:#262626"
         id="tspan4754">c</tspan><tspan
         dx="0"
         dy="0"
         style="font-style:normal;font-variant:normal;font-weight:400;font-size:29.3125px;font-family:Arial;fill:#262626"
         id="tspan4756">a</tspan><tspan
         dx="0"
         dy="0"
         style="font-style:normal;font-variant:normal;font-weight:400;font-size:29.3125px;font-family:Arial;fill:#262626"
         id="tspan4758">t</tspan><tspan
         dx="0"
         dy="0"
         style="font-style:normal;font-variant:normal;font-weight:400;font-size:29.3125px;font-family:Arial;fill:#262626"
         id="tspan4760">t</tspan><tspan
         dx="0"
         dy="0"
         style="font-style:normal;font-variant:normal;font-weight:400;font-size:29.3125px;font-family:Arial;fill:#262626"
         id="tspan4762">e</tspan><tspan
         dx="0"
         dy="0"
         style="font-style:normal;font-variant:normal;font-weight:400;font-size:29.3125px;font-family:Arial;fill:#262626"
         id="tspan4764">r</tspan><tspan
         dx="0"
         dy="0"
         style="font-style:normal;font-variant:normal;font-weight:400;font-size:29.3125px;font-family:Arial;fill:#262626"
         id="tspan4766">i</tspan><tspan
         dx="0"
         dy="0"
         style="font-style:normal;font-variant:normal;font-weight:400;font-size:29.3125px;font-family:Arial;fill:#262626"
         id="tspan4768">n</tspan><tspan
         dx="0"
         dy="0"
         style="font-style:normal;font-variant:normal;font-weight:400;font-size:29.3125px;font-family:Arial;fill:#262626"
         id="tspan4770">g </tspan><tspan
         dx="0"
         dy="0"
         style="font-style:normal;font-variant:normal;font-weight:400;font-size:29.3125px;font-family:Arial;fill:#262626"
         id="tspan4772" /><tspan
         dx="0"
         dy="0"
         style="font-style:normal;font-variant:normal;font-weight:400;font-size:29.3125px;font-family:Arial;fill:#262626"
         id="tspan4774">r</tspan><tspan
         dx="0"
         dy="0"
         style="font-style:normal;font-variant:normal;font-weight:400;font-size:29.3125px;font-family:Arial;fill:#262626"
         id="tspan4776">a</tspan><tspan
         dx="0"
         dy="0"
         style="font-style:normal;font-variant:normal;font-weight:400;font-size:29.3125px;font-family:Arial;fill:#262626"
         id="tspan4778">t</tspan><tspan
         dx="0"
         dy="0"
         style="font-style:normal;font-variant:normal;font-weight:400;font-size:29.3125px;font-family:Arial;fill:#262626"
         id="tspan4780">e</tspan><tspan
         dx="3.6914849"
         dy="0"
         style="font-style:normal;font-variant:normal;font-weight:400;font-size:29.3125px;font-family:Arial;fill:#262626"
         id="tspan4782" /></tspan></text>
  <path
     style="fill:#262626;fill-opacity:1;fill-rule:nonzero;stroke:none"
     d="m 96.29921,285.32677 c 0,1.58284 -0.66645,2.74914 -1.99937,3.66551 -1.41622,0.91638 -2.91575,1.33292 -4.58189,1.33292 -0.99968,0 -1.999367,-0.16662 -2.999052,-0.58315 -1.082992,-0.41654 -1.916063,-0.99969 -2.499213,-1.74945 C 83.553228,287.24283 83.22,286.32646 83.22,285.24346 c 0,-1.2496 0.333228,-2.4159 1.082992,-3.41559 0.666457,-1.08299 1.666142,-1.91606 2.832441,-2.66582 l 0.916377,-0.66646 c -1.416219,-0.66646 -2.582519,-1.58283 -3.498897,-2.66583 C 83.636535,274.74677 83.22,273.49717 83.22,271.99764 c 0,-0.33323 0,-0.66646 0.08331,-0.99969 h 0.916378 c -0.08331,0.24992 -0.08331,0.49985 -0.08331,0.74977 0,0.99968 0.249921,1.83275 0.666457,2.58252 0.499842,0.74976 1.166299,1.41622 1.916063,1.99937 0.749763,0.58315 1.582832,1.08299 2.499212,1.49952 l 1.99937,-1.33291 c 0.74976,-0.49984 1.33291,-0.91638 1.83276,-1.33291 0.58315,-0.41654 0.99968,-0.99969 1.41622,-1.58284 0.33323,-0.58315 0.58315,-1.1663 0.58315,-1.91606 0,-0.0833 -0.0833,-0.33323 -0.0833,-0.66646 h 1.24961 c 0.0833,0.49985 0.0833,0.83307 0.0833,1.08299 0,1.24961 -0.33323,2.3326 -1.08299,3.4156 -0.74976,1.08299 -1.66614,1.91606 -2.83244,2.66582 l -0.91638,0.66646 c 0.91638,0.41653 1.66614,0.99968 2.41591,1.58283 0.74976,0.66646 1.33291,1.41622 1.74945,2.24929 0.49984,0.83308 0.66645,1.66615 0.66645,2.66583 z m -0.91638,0.24992 c 0,-1.33291 -0.49984,-2.58252 -1.41622,-3.5822 -0.99968,-0.99969 -2.24929,-1.83276 -3.66551,-2.49921 l -2.08267,1.41622 c -1.082997,0.66645 -1.999375,1.33291 -2.665832,2.16598 -0.749763,0.74976 -1.082992,1.58283 -1.082992,2.58252 0,0.83307 0.249922,1.49953 0.833071,2.16598 0.499843,0.58315 1.166299,0.99969 1.99937,1.33292 0.833073,0.24992 1.666143,0.41653 2.499213,0.41653 0.83307,0 1.66614,-0.16661 2.58252,-0.41653 0.83307,-0.33323 1.58283,-0.74977 2.16598,-1.33292 0.58315,-0.66645 0.83307,-1.41622 0.83307,-2.24929 z"
     id="path4788"
     inkscape:connector-curvature="0" />
  <text
     xml:space="preserve"
     style="font-style:normal;font-variant:normal;font-weight:400;font-size:29.3125px;line-height:125%;font-family:Arial;text-align:start;letter-spacing:0px;word-spacing:0px;text-anchor:start;fill:#000000;fill-opacity:1;stroke:none"
     transform="rotate(-90)"
     x="-267.91559"
     y="97.298897"
     id="text4818"><tspan
       sodipodi:role="line"
       x="-267.91559"
       y="97.298897"
       id="tspan4816"><tspan
         dx="0"
         dy="0"
         style="font-style:normal;font-variant:normal;font-weight:400;font-size:29.3125px;font-family:Arial;fill:#262626"
         id="tspan4790" /><tspan
         dx="0 0"
         dy="0 0"
         style="font-style:normal;font-variant:normal;font-weight:400;font-size:29.3125px;font-family:Arial;fill:#262626"
         id="tspan4792"> i</tspan><tspan
         dx="0"
         dy="0"
         style="font-style:normal;font-variant:normal;font-weight:400;font-size:29.3125px;font-family:Arial;fill:#262626"
         id="tspan4794">o</tspan><tspan
         dx="0"
         dy="0"
         style="font-style:normal;font-variant:normal;font-weight:400;font-size:29.3125px;font-family:Arial;fill:#262626"
         id="tspan4796">n </tspan><tspan
         dx="0"
         dy="0"
         style="font-style:normal;font-variant:normal;font-weight:400;font-size:29.3125px;font-family:Arial;fill:#262626"
         id="tspan4798" /><tspan
         dx="0"
         dy="0"
         style="font-style:normal;font-variant:normal;font-weight:400;font-size:29.3125px;font-family:Arial;fill:#262626"
         id="tspan4800">v</tspan><tspan
         dx="0"
         dy="0"
         style="font-style:normal;font-variant:normal;font-weight:400;font-size:29.3125px;font-family:Arial;fill:#262626"
         id="tspan4802">e</tspan><tspan
         dx="0"
         dy="0"
         style="font-style:normal;font-variant:normal;font-weight:400;font-size:29.3125px;font-family:Arial;fill:#262626"
         id="tspan4804">l</tspan><tspan
         dx="0"
         dy="0"
         style="font-style:normal;font-variant:normal;font-weight:400;font-size:29.3125px;font-family:Arial;fill:#262626"
         id="tspan4806">o</tspan><tspan
         dx="0"
         dy="0"
         style="font-style:normal;font-variant:normal;font-weight:400;font-size:29.3125px;font-family:Arial;fill:#262626"
         id="tspan4808">c</tspan><tspan
         dx="0"
         dy="0"
         style="font-style:normal;font-variant:normal;font-weight:400;font-size:29.3125px;font-family:Arial;fill:#262626"
         id="tspan4810">i</tspan><tspan
         dx="0"
         dy="0"
         style="font-style:normal;font-variant:normal;font-weight:400;font-size:29.3125px;font-family:Arial;fill:#262626"
         id="tspan4812">t</tspan><tspan
         dx="0"
         dy="0"
         style="font-style:normal;font-variant:normal;font-weight:400;font-size:29.3125px;font-family:Arial;fill:#262626"
         id="tspan4814">y</tspan></tspan></text>
  <path
     style="fill:none;stroke:#0072bd;stroke-width:5.3316536px;stroke-linecap:butt;stroke-linejoin:round;stroke-miterlimit:4;stroke-dasharray:none;stroke-opacity:1;"
     d="  M 123.96094,117.62961   L 131.87512,112.63118   L 139.78929,100.80157   L 147.62016,113.96409   L 155.53433,120.87858   L 163.4485,143.20488   L 171.27937,172.44567   L 179.19354,201.18661   L 187.10772,202.93606   L 194.93858,193.85559   L 202.85276,139.12283   L 210.68362,108.96567   L 218.5978,95.719843   L 226.51197,107.13291   L 234.34283,108.04929   L 242.25701,128.1263   L 250.17118,131.79181   L 258.00205,177.86063   L 265.91622,197.93764   L 273.83039,197.02126   L 281.66126,200.27024   L 289.57543,147.78677   L 297.48961,107.63276   L 305.32047,119.04583   L 313.23465,116.29669   L 321.06551,107.13291   L 328.97969,113.96409   L 336.89386,150.95244   L 344.72472,180.60976   L 352.6389,204.35228   L 360.55307,213.9326   L 368.38394,193.35575   L 376.29811,133.12472   L 384.21228,102.63433   L 392.04315,125.37717   L 399.95732,89.805039   L 407.78819,111.7148   L 415.70236,126.79339   L 423.61654,157.36709   L 431.4474,171.94583   L 439.36157,204.35228   L 447.27575,208.0178   L 455.10661,188.85717   L 463.02079,132.70819   L 470.93496,105.8   L 478.76583,114.46394   L 486.68,109.46551   L 494.51087,117.21307   L 502.42504,137.29008   L 510.33921,158.28346   L 518.17008,195.68835   L 526.08425,206.18504   L 533.99843,207.51795   L 541.82929,173.77858   L 549.74346,135.87386   L 557.65764,108.54913   L 565.4885,104.38378   L 573.40268,113.96409   L 581.23354,110.79843   L 589.14772,139.12283   L 597.06189,147.78677   L 604.89276,182.85906   L 612.80693,205.6852   L 620.7211,203.43591   L 628.55197,173.77858   L 636.46614,145.03764   L 644.38031,112.63118   L 652.21118,101.71795   L 660.12535,113.96409   L 668.03953,128.62614   L 675.87039,147.78677   L 683.78457,154.11811   L 691.61543,184.69181   L 699.52961,211.18346   L 707.44378,202.93606   L 715.27465,166.03102   L 723.18882,124.04425   L 731.10299,113.96409   L 738.93386,96.63622   L 746.84803,111.29827   L 754.7622,134.0411   L 762.59307,142.78835   L 770.50724,168.28031   L 778.33811,182.85906   L 786.25228,195.1885   L 794.16646,206.18504   L 801.99732,170.11307   L 809.9115,130.87543   L 817.82567,108.04929   L 825.65654,102.63433   L 833.57071,103.05087   L 841.48488,113.96409   L 849.31575,139.53937   L 857.22992,163.28189   L 865.06079,183.3589  "
     id="path4820" />
  <path
     style="fill:none;stroke:#d95319;stroke-width:5.3316536px;stroke-linecap:butt;stroke-linejoin:round;stroke-miterlimit:4;stroke-dasharray:none;stroke-opacity:1;"
     d="  M 123.96094,290.15858   L 131.87512,296.48992   L 139.78929,290.57512   L 147.62016,289.2422   L 155.53433,312.48488   L 163.4485,317.98315   L 171.27937,326.14724   L 179.19354,333.47827   L 187.10772,348.97339   L 194.93858,327.06362   L 202.85276,304.73732   L 210.68362,301.48835   L 218.5978,300.65528   L 226.51197,305.6537   L 234.34283,309.31921   L 242.25701,309.73575   L 250.17118,321.14882   L 258.00205,310.23559   L 265.91622,348.97339   L 273.83039,354.47165   L 281.66126,341.64236   L 289.57543,312.48488   L 297.48961,286.49307   L 305.32047,285.07685   L 313.23465,290.15858   L 321.06551,306.07024   L 328.97969,310.23559   L 336.89386,306.57008   L 344.72472,309.73575   L 352.6389,348.55685   L 360.55307,344.3915   L 368.38394,332.97843   L 376.29811,309.73575   L 384.21228,296.98976   L 392.04315,293.74079   L 399.95732,288.32583   L 407.78819,287.40945   L 415.70236,315.65055   L 423.61654,320.73228   L 431.4474,332.97843   L 439.36157,345.80772   L 447.27575,355.80457   L 455.10661,331.14567   L 463.02079,292.82441   L 470.93496,317.48331   L 478.76583,296.98976   L 486.68,286.90961   L 494.51087,303.82094   L 502.42504,299.23906   L 510.33921,315.65055   L 518.17008,322.48173   L 526.08425,339.89291   L 533.99843,358.13717   L 541.82929,332.56189   L 549.74346,307.48646   L 557.65764,290.15858   L 565.4885,284.66031   L 573.40268,296.48992   L 581.23354,303.82094   L 589.14772,303.3211   L 597.06189,324.31449   L 604.89276,325.23087   L 612.80693,354.47165   L 620.7211,348.05701   L 628.55197,333.8948   L 636.46614,284.66031   L 644.38031,301.98819   L 652.21118,310.23559   L 660.12535,295.57354   L 668.03953,290.57512   L 675.87039,306.98661   L 683.78457,319.31606   L 691.61543,324.31449   L 699.52961,353.55528   L 707.44378,349.47323   L 715.27465,323.39811   L 723.18882,292.40787   L 731.10299,298.32268   L 738.93386,293.32425   L 746.84803,294.65717   L 754.7622,296.07339   L 762.59307,322.48173   L 770.50724,324.31449   L 778.33811,327.56346   L 786.25228,348.05701   L 794.16646,354.88819   L 801.99732,320.73228   L 809.9115,293.32425   L 817.82567,305.6537   L 825.65654,292.82441   L 833.57071,280.07843   L 841.48488,291.07496   L 849.31575,305.6537   L 857.22992,310.23559   L 865.06079,321.14882  "
     id="path4822" />
  <path
     style="fill:none;stroke:#5a8f29;stroke-width:5.3316536px;stroke-linecap:butt;stroke-linejoin:round;stroke-miterlimit:4;stroke-dasharray:none;stroke-opacity:1;"
     d="  M 123.96094,455.77307   L 131.87512,436.61244   L 139.78929,434.27984   L 147.62016,437.52882   L 155.53433,450.2748   L 163.4485,453.02394   L 171.27937,464.85354   L 179.19354,468.10252   L 187.10772,473.10094   L 194.93858,471.26819   L 202.85276,458.93874   L 210.68362,446.60929   L 218.5978,443.86016   L 226.51197,438.4452   L 234.34283,442.94378   L 242.25701,445.27638   L 250.17118,459.85512   L 258.00205,468.10252   L 265.91622,468.51906   L 273.83039,472.6011   L 281.66126,460.7715   L 289.57543,458.5222   L 297.48961,436.1126   L 305.32047,439.77811   L 313.23465,442.52724   L 321.06551,441.61087   L 328.97969,452.10756   L 336.89386,452.52409   L 344.72472,465.76992   L 352.6389,468.10252   L 360.55307,465.35339   L 368.38394,456.68945   L 376.29811,450.2748   L 384.21228,445.27638   L 392.04315,445.69291   L 399.95732,442.0274   L 407.78819,442.52724   L 415.70236,449.35843   L 423.61654,455.27323   L 431.4474,460.27165   L 439.36157,471.26819   L 447.27575,479.43228   L 455.10661,463.52063   L 463.02079,456.68945   L 470.93496,448.02551   L 478.76583,445.27638   L 486.68,438.86173   L 494.51087,438.86173   L 502.42504,450.69134   L 510.33921,459.35528   L 518.17008,461.18803   L 526.08425,467.18614   L 533.99843,472.6011   L 541.82929,466.6863   L 549.74346,450.2748   L 557.65764,454.85669   L 565.4885,443.86016   L 573.40268,437.52882   L 581.23354,437.52882   L 589.14772,443.86016   L 597.06189,465.76992   L 604.89276,455.77307   L 612.80693,468.51906   L 620.7211,470.35181   L 628.55197,463.93717   L 636.46614,453.44047   L 644.38031,440.69449   L 652.21118,440.19465   L 660.12535,433.86331   L 668.03953,439.77811   L 675.87039,453.44047   L 683.78457,465.35339   L 691.61543,463.93717   L 699.52961,465.76992   L 707.44378,473.10094   L 715.27465,462.10441   L 723.18882,448.44205   L 731.10299,450.2748   L 738.93386,439.77811   L 746.84803,434.77969   L 754.7622,450.2748   L 762.59307,456.18961   L 770.50724,458.93874   L 778.33811,459.35528   L 786.25228,473.51748   L 794.16646,464.85354   L 801.99732,456.68945   L 809.9115,454.35685   L 817.82567,436.1126   L 825.65654,449.35843   L 833.57071,438.4452   L 841.48488,455.27323   L 849.31575,455.27323   L 857.22992,465.35339   L 865.06079,469.43543  "
     id="path4824" />
  <path
     style="fill:none;stroke:#7e2f8e;stroke-width:5.3316536px;stroke-linecap:butt;stroke-linejoin:round;stroke-miterlimit:4;stroke-dasharray:none;stroke-opacity:1;"
     d="  M 123.96094,592.64661   L 131.87512,595.81228   L 139.78929,584.39921   L 147.62016,588.9811   L 155.53433,588.48126   L 163.4485,583.98268   L 171.27937,579.40079   L 179.19354,578.90094   L 187.10772,582.56646   L 194.93858,584.39921   L 202.85276,589.89748   L 210.68362,576.23512   L 218.5978,587.64819   L 226.51197,590.81386   L 234.34283,589.39764   L 242.25701,598.56142   L 250.17118,580.7337   L 258.00205,583.48283   L 265.91622,586.73181   L 273.83039,577.1515   L 281.66126,589.89748   L 289.57543,585.31559   L 297.48961,588.9811   L 305.32047,591.73024   L 313.23465,585.81543   L 321.06551,593.56299   L 328.97969,591.73024   L 336.89386,584.39921   L 344.72472,584.39921   L 352.6389,581.65008   L 360.55307,583.98268   L 368.38394,575.31874   L 376.29811,584.39921   L 384.21228,592.64661   L 392.04315,581.65008   L 399.95732,585.81543   L 407.78819,588.9811   L 415.70236,591.73024   L 423.61654,587.64819   L 431.4474,583.48283   L 439.36157,585.81543   L 447.27575,577.56803   L 455.10661,583.98268   L 463.02079,587.64819   L 470.93496,583.0663   L 478.76583,579.81732   L 486.68,589.89748   L 494.51087,580.7337   L 502.42504,582.14992   L 510.33921,578.90094   L 518.17008,589.39764   L 526.08425,584.89906   L 533.99843,588.48126   L 541.82929,582.56646   L 549.74346,585.81543   L 557.65764,590.31402   L 565.4885,593.97953   L 573.40268,594.47937   L 581.23354,586.23197   L 589.14772,593.06315   L 597.06189,585.31559   L 604.89276,578.90094   L 612.80693,583.98268   L 620.7211,584.39921   L 628.55197,582.56646   L 636.46614,583.48283   L 644.38031,581.23354   L 652.21118,595.39575   L 660.12535,582.56646   L 668.03953,583.48283   L 675.87039,586.73181   L 683.78457,583.0663   L 691.61543,580.7337   L 699.52961,585.81543   L 707.44378,579.40079   L 715.27465,579.81732   L 723.18882,588.9811   L 731.10299,584.89906   L 738.93386,591.23039   L 746.84803,593.56299   L 754.7622,582.56646   L 762.59307,586.73181   L 770.50724,587.14835   L 778.33811,597.64504   L 786.25228,579.40079   L 794.16646,581.23354   L 801.99732,583.48283   L 809.9115,589.89748   L 817.82567,590.31402   L 825.65654,589.89748   L 833.57071,593.56299   L 841.48488,586.23197   L 849.31575,584.39921   L 857.22992,592.14677   L 865.06079,588.06472  "
     id="path4826" />
  <path
     style="fill:none;stroke:#cccccc;stroke-width:0.91637796px;stroke-linecap:butt;stroke-linejoin:round;stroke-miterlimit:4;stroke-dasharray:none;stroke-opacity:1"
     d="m 117.96094,520.08614 h 7.49764 7.49764 7.49764 7.49764 7.49763 7.49764 7.41433 7.49764 7.49764 7.49764 7.49763 7.49764 7.49764 7.41433 7.49764 7.49764 7.49763 7.49764 7.49764 7.49764 7.41433 7.49764 7.49763 7.49764 7.49764 7.49764 7.49763 7.49764 7.41433 7.49764 7.49764 7.49764 7.49763 7.49764 7.49764 7.41433 7.49764 7.49764 7.49763 7.49764 7.49764 7.49764 7.41433 7.49764 7.49763 7.49764 7.49764 7.49764 7.49763 7.41434 7.49763 7.49764 7.49764 7.49764 7.49763 7.49764 7.41433 7.49764 7.49764 7.49764 7.49763 7.49764 7.49764 7.41433 7.49764 7.49764 7.49763 7.49764 7.49764 7.49764 7.41433 7.49764 7.49763 7.49764 7.49764 7.49764 7.49763 7.41433 7.49764 7.49764 7.49764 7.49764 7.49763 7.49764 7.41433 7.49764 7.49764 7.49764 7.49763 7.49764 7.49764 7.41433 7.49764 7.49764 7.49763 7.49764 7.49764 7.49764 7.41433"
     id="path4828"
     inkscape:connector-curvature="0" />
  <path
     style="fill:none;stroke:#cccccc;stroke-width:0.91637796px;stroke-linecap:butt;stroke-linejoin:round;stroke-miterlimit:4;stroke-dasharray:none;stroke-opacity:1"
     d="m 117.96094,383.2126 h 7.49764 7.49764 7.49764 7.49764 7.49763 7.49764 7.41433 7.49764 7.49764 7.49764 7.49763 7.49764 7.49764 7.41433 7.49764 7.49764 7.49763 7.49764 7.49764 7.49764 7.41433 7.49764 7.49763 7.49764 7.49764 7.49764 7.49763 7.49764 7.41433 7.49764 7.49764 7.49764 7.49763 7.49764 7.49764 7.41433 7.49764 7.49764 7.49763 7.49764 7.49764 7.49764 7.41433 7.49764 7.49763 7.49764 7.49764 7.49764 7.49763 7.41434 7.49763 7.49764 7.49764 7.49764 7.49763 7.49764 7.41433 7.49764 7.49764 7.49764 7.49763 7.49764 7.49764 7.41433 7.49764 7.49764 7.49763 7.49764 7.49764 7.49764 7.41433 7.49764 7.49763 7.49764 7.49764 7.49764 7.49763 7.41433 7.49764 7.49764 7.49764 7.49764 7.49763 7.49764 7.41433 7.49764 7.49764 7.49764 7.49763 7.49764 7.49764 7.41433 7.49764 7.49764 7.49763 7.49764 7.49764 7.49764 7.41433"
     id="path4830"
     inkscape:connector-curvature="0" />
  <path
     style="fill:none;stroke:#cccccc;stroke-width:0.91637796px;stroke-linecap:butt;stroke-linejoin:round;stroke-miterlimit:4;stroke-dasharray:none;stroke-opacity:1"
     d="m 117.96094,246.33906 h 7.49764 7.49764 7.49764 7.49764 7.49763 7.49764 7.41433 7.49764 7.49764 7.49764 7.49763 7.49764 7.49764 7.41433 7.49764 7.49764 7.49763 7.49764 7.49764 7.49764 7.41433 7.49764 7.49763 7.49764 7.49764 7.49764 7.49763 7.49764 7.41433 7.49764 7.49764 7.49764 7.49763 7.49764 7.49764 7.41433 7.49764 7.49764 7.49763 7.49764 7.49764 7.49764 7.41433 7.49764 7.49763 7.49764 7.49764 7.49764 7.49763 7.41434 7.49763 7.49764 7.49764 7.49764 7.49763 7.49764 7.41433 7.49764 7.49764 7.49764 7.49763 7.49764 7.49764 7.41433 7.49764 7.49764 7.49763 7.49764 7.49764 7.49764 7.41433 7.49764 7.49763 7.49764 7.49764 7.49764 7.49763 7.41433 7.49764 7.49764 7.49764 7.49764 7.49763 7.49764 7.41433 7.49764 7.49764 7.49764 7.49763 7.49764 7.49764 7.41433 7.49764 7.49764 7.49763 7.49764 7.49764 7.49764 7.41433"
     id="path4832"
     inkscape:connector-curvature="0" />
  <path
     style="fill:#ffffff;fill-opacity:1;fill-rule:evenodd;stroke:none"
     d="m 731.26142,503.75607 v 123.96094 h 73.31024 V 503.75607 Z"
     id="path4834"
     inkscape:connector-curvature="0" />
  <rect
     style="opacity:1;fill:#ffffff;fill-opacity:1;stroke:none;stroke-width:1.89354336;stroke-miterlimit:4;stroke-dasharray:none;stroke-opacity:1"
     id="rect5427"
     width="131.43747"
     height="126.37936"
     x="737.26141"
     y="503.75607"
     rx="12.783"
     ry="16.01" />
  <text
     xml:space="preserve"
     style="font-style:normal;font-variant:normal;font-weight:400;font-size:22.6875px;line-height:125%;font-family:Arial;text-align:start;letter-spacing:0px;word-spacing:0px;text-anchor:start;fill:#000000;fill-opacity:1;stroke:none"
     x="803.90833"
     y="528.41437"
     id="text4840"><tspan
       sodipodi:role="line"
       x="803.90833"
       y="528.41437"
       id="tspan4838"><tspan
         dx="0"
         dy="0"
         style="font-style:normal;font-variant:normal;font-weight:400;font-size:22.6875px;font-family:Arial;fill:#000000"
         id="tspan4836">    0 V</tspan></tspan></text>
  <path
     style="fill:none;stroke:#0072bd;stroke-width:5.33165359px;stroke-linecap:butt;stroke-linejoin:round;stroke-miterlimit:4;stroke-dasharray:none;stroke-opacity:1"
     d="m 746.59307,519.00064 h 53.31654"
     id="path4842"
     inkscape:connector-curvature="0" />
  <text
     xml:space="preserve"
     style="font-style:normal;font-variant:normal;font-weight:400;font-size:22.6875px;line-height:125%;font-family:Arial;text-align:start;letter-spacing:0px;word-spacing:0px;text-anchor:start;fill:#000000;fill-opacity:1;stroke:none"
     x="803.90833"
     y="557.73846"
     id="text4848"><tspan
       sodipodi:role="line"
       x="803.90833"
       y="557.73846"
       id="tspan4846"><tspan
         dx="0"
         dy="0"
         style="font-style:normal;font-variant:normal;font-weight:400;font-size:22.6875px;font-family:Arial;fill:#000000"
         id="tspan4844">100 V</tspan></tspan></text>
  <path
     style="fill:none;stroke:#d95319;stroke-width:5.33165359px;stroke-linecap:butt;stroke-linejoin:round;stroke-miterlimit:4;stroke-dasharray:none;stroke-opacity:1"
     d="m 746.59307,548.82457 h 53.31654"
     id="path4850"
     inkscape:connector-curvature="0" />
  <text
     xml:space="preserve"
     style="font-style:normal;font-variant:normal;font-weight:400;font-size:22.6875px;line-height:125%;font-family:Arial;text-align:start;letter-spacing:0px;word-spacing:0px;text-anchor:start;fill:#000000;fill-opacity:1;stroke:none"
     x="803.90833"
     y="588.39545"
     id="text4856"><tspan
       sodipodi:role="line"
       x="803.90833"
       y="588.39545"
       id="tspan4854"><tspan
         dx="0"
         dy="0"
         style="font-style:normal;font-variant:normal;font-weight:400;font-size:22.6875px;font-family:Arial;fill:#000000"
         id="tspan4852">200 V</tspan></tspan></text>
  <path
     style="fill:none;stroke:#5a8f29;stroke-width:5.33165359px;stroke-linecap:butt;stroke-linejoin:round;stroke-miterlimit:4;stroke-dasharray:none;stroke-opacity:1"
     d="m 746.59307,578.73181 h 53.31654"
     id="path4858"
     inkscape:connector-curvature="0" />
  <text
     xml:space="preserve"
     style="font-style:normal;font-variant:normal;font-weight:400;font-size:22.6875px;line-height:125%;font-family:Arial;text-align:start;letter-spacing:0px;word-spacing:0px;text-anchor:start;fill:#000000;fill-opacity:1;stroke:none"
     x="803.90833"
     y="617.71954"
     id="text4864"><tspan
       sodipodi:role="line"
       x="803.90833"
       y="617.71954"
       id="tspan4862"><tspan
         dx="0"
         dy="0"
         style="font-style:normal;font-variant:normal;font-weight:400;font-size:22.6875px;font-family:Arial;fill:#000000"
         id="tspan4860">250 V</tspan></tspan></text>
  <path
     style="fill:none;stroke:#7e2f8e;stroke-width:5.33165359px;stroke-linecap:butt;stroke-linejoin:round;stroke-miterlimit:4;stroke-dasharray:none;stroke-opacity:1"
     d="m 746.59307,608.55575 h 53.31654"
     id="path4866"
     inkscape:connector-curvature="0" />
  <flowRoot
     xml:space="preserve"
     id="flowRoot5419"
     style="fill:black;fill-opacity:1;stroke:none;font-family:sans-serif;font-style:normal;font-weight:normal;font-size:40px;line-height:1.25;letter-spacing:0px;word-spacing:0px"><flowRegion
       id="flowRegion5421"><rect
         id="rect5423"
         width="64.678467"
         height="508.18793"
         x="67.198402"
         y="103.58808" /></flowRegion><flowPara
       id="flowPara5425"></flowPara></flowRoot></svg>
